<svg width="347" height="350" viewBox="0 0 347 350" fill="none" xmlns="http://www.w3.org/2000/svg">
<ellipse cx="173.5" cy="175" rx="173.5" ry="175" fill="#71bbff77"/>
<path d="M78.2906 117.667H89.7585V146.833H78.2906V117.667Z" fill="#000000"/>
<path d="M103.138 117.667H114.605V146.833H103.138V117.667Z" fill="#000000"/>
<path d="M70.6454 155.167H147.098V167.667H70.6454V155.167Z" fill="#000000"/>
<path d="M127.985 117.667H139.453V146.833H127.985V117.667Z" fill="#000000"/>
<path d="M108.872 80.1667L70.6454 101V109.333H147.098V101L108.872 80.1667Z" fill="#000000"/>
<path d="M211.291 117.667H222.758V146.833H211.291V117.667Z" fill="#000000"/>
<path d="M236.138 117.667H247.606V146.833H236.138V117.667Z" fill="#000000"/>
<path d="M203.645 155.167H280.098V167.667H203.645V155.167Z" fill="#000000"/>
<path d="M260.985 117.667H272.453V146.833H260.985V117.667Z" fill="#000000"/>
<path d="M241.872 80.1667L203.645 101V109.333H280.098V101L241.872 80.1667Z" fill="#000000"/>
<path d="M143.291 227.667H154.758V256.833H143.291V227.667Z" fill="#000000"/>
<path d="M168.138 227.667H179.605V256.833H168.138V227.667Z" fill="#000000"/>
<path d="M135.645 265.167H212.098V277.667H135.645V265.167Z" fill="#000000"/>
<path d="M192.985 227.667H204.453V256.833H192.985V227.667Z" fill="#000000"/>
<path d="M173.872 190.167L135.645 211V219.333H212.098V211L173.872 190.167Z" fill="#000000"/>
</svg>
