<svg width="413" height="300" viewBox="0 0 413 300" fill="none" xmlns="http://www.w3.org/2000/svg">
<rect x="16.8564" y="0.5" width="379.287" height="298.868" rx="39.5" fill="#B8DAFA" stroke="black"/>
<path d="M93.3279 83.3925H93.793V82.9115V57.1308H118.656V82.9115V83.3925H119.121H144.449V108.692H119.121H118.656V109.173V134.954H93.793V109.173V108.692H93.3279H68V83.3925H93.3279ZM222.293 175.308H222.294C258.345 175.251 293.771 184.874 325 203.207V240H119.586V203.207C149.772 185.475 184.944 175.308 222.293 175.308ZM184.068 82.9115C184.068 72.594 188.094 62.6974 195.261 55.3995C202.43 48.1014 212.153 44 222.293 44C232.433 44 242.157 48.1014 249.324 55.3995C256.492 62.6974 260.517 72.594 260.517 82.9115V109.173C260.517 119.491 256.492 129.387 249.324 136.685C242.157 143.983 232.433 148.084 222.293 148.084C212.153 148.084 202.43 143.983 195.261 136.685C188.094 129.387 184.068 119.491 184.068 109.173V82.9115Z" fill="white" stroke="black"/>
</svg>
