<svg width="278" height="206" viewBox="0 0 278 206" fill="none" xmlns="http://www.w3.org/2000/svg">
<path d="M28.2932 41.8287H28.7932V41.3287V14.5264H55.5216V41.3287V41.8287H56.0216H83.2499V68.1309H56.0216H55.5216V68.6309V95.4332H28.7932V68.6309V68.1309H28.2932H1.06494V41.8287H28.2932ZM166.935 137.387H166.936C205.692 137.327 243.776 147.332 277.348 166.391V204.642H56.5216V166.391C88.9722 147.956 126.783 137.387 166.935 137.387ZM125.842 41.3287C125.842 30.6023 130.17 20.3136 137.875 12.7265C145.581 5.13914 156.034 0.875244 166.935 0.875244C177.836 0.875244 188.289 5.13914 195.994 12.7265C203.7 20.3136 208.027 30.6023 208.027 41.3287V68.6309C208.027 79.3573 203.7 89.646 195.994 97.2331C188.289 104.82 177.836 109.084 166.935 109.084C156.034 109.084 145.581 104.82 137.875 97.2331C130.17 89.646 125.842 79.3573 125.842 68.6309V41.3287Z" fill="#C4FF78" stroke="#C4FF78"/>
</svg>
