<svg width="278" height="274" viewBox="0 0 278 274" fill="none" xmlns="http://www.w3.org/2000/svg">
<path d="M249.055 218.918V245.221H28.2283V218.918H83.1849H83.6849H110.413H110.913H166.37H166.87H193.598H194.098H249.055ZM82.6849 217.918H28.2283V109.709H82.6849V217.918ZM27.7283 108.709H27.2283H0.5V82.1922L138.642 0.580734L276.783 82.1922V108.709H250.055H249.555H194.098H193.598H166.87H166.37H110.913H110.413H83.6849H83.1849H27.7283ZM111.413 109.709H165.87V217.918H111.413V109.709ZM249.055 217.918H194.598V109.709H249.055V217.918ZM250.055 246.221H276.783V272.523H0.5V246.221H27.2283H27.7283H249.555H250.055Z" fill="#000000" stroke="#000000"/>
</svg>
