<?xml version='1.0' encoding='iso-8859-1'?>
<!DOCTYPE svg PUBLIC '-//W3C//DTD SVG 1.1//EN' 'http://www.w3.org/Graphics/SVG/1.1/DTD/svg11.dtd'>
<svg version="1.1" xmlns="http://www.w3.org/2000/svg" viewBox="0 0 512 512" xmlns:xlink="http://www.w3.org/1999/xlink" enable-background="new 0 0 512 512">
  <g>
    <path d="m432,224h-48v-96c0-70.578-57.422-128-128-128s-128,57.422-128,128v96h-48c-8.836,0-16,7.164-16,16v256c0,8.836 7.164,16 16,16h352c8.836,0 16-7.164 16-16v-256c0-8.836-7.164-16-16-16zm-272-96c0-52.938 43.063-96 96-96s96,43.063 96,96v96h-16v-96c0-44.109-35.891-80-80-80s-80,35.891-80,80v96h-16v-96zm48,96v-96c0-26.469 21.531-48 48-48 26.469,0 48,21.531 48,48v96h-96zm208,256h-320v-224h320v224z"/>
    <path d="m256,304.002c-17.673,0-32,14.326-32,32 0,11.814 6.476,22.018 16,27.561v36.439c0,8.836 7.163,16 16,16 8.837,0 16-7.164 16-16v-36.439c9.524-5.543 16-15.747 16-27.561 0-17.674-14.327-32-32-32z"/>
  </g>
</svg>
