<svg width="279" height="220" viewBox="0 0 279 220" fill="black" xmlns="http://www.w3.org/2000/svg">
<path d="M56.3658 136.891H56.3636C50.2324 136.918 44.276 138.91 39.3957 142.568C34.5152 146.225 30.9761 151.35 29.3153 157.166C27.6545 162.983 27.963 169.174 30.1938 174.803C32.4245 180.431 36.4557 185.189 41.6758 188.359C46.8958 191.529 53.0213 192.938 59.1258 192.374C65.2304 191.81 70.9834 189.303 75.5142 185.232C80.0452 181.161 83.1074 175.747 84.2361 169.808C85.3465 163.964 84.5255 157.927 81.8986 152.581L110.139 110.602C113.038 110.729 115.94 110.421 118.746 109.69L139.824 130.444C138.7 134.707 138.62 139.173 139.593 143.475C140.587 147.872 142.651 151.965 145.607 155.402C148.563 158.839 152.322 161.516 156.561 163.205C160.799 164.893 165.39 165.543 169.939 165.097C174.488 164.652 178.86 163.124 182.678 160.647C186.496 158.169 189.646 154.814 191.857 150.871C194.068 146.927 195.273 142.514 195.368 138.009C195.461 133.604 194.49 129.241 192.536 125.28L221.197 83.2862L222.736 83.2862L222.738 83.2862C228.869 83.2593 234.825 81.2669 239.706 77.6093C244.586 73.9516 248.125 68.8273 249.786 63.0106C251.447 57.1939 251.138 51.0027 248.908 45.3742C246.677 39.7459 242.646 34.9875 237.426 31.8179C232.206 28.6484 226.08 27.2395 219.976 27.8034C213.871 28.3674 208.118 30.8737 203.587 34.9447C199.056 39.0157 195.994 44.4302 194.865 50.3694C193.755 56.2128 194.576 62.2499 197.203 67.5958L168.963 109.575C166.063 109.448 163.16 109.756 160.355 110.488L139.139 89.7322C140.263 85.4696 140.343 81.0036 139.37 76.7022C138.376 72.3048 136.311 68.2118 133.355 64.775C130.399 61.3383 126.64 58.6609 122.402 56.9723C118.164 55.2837 113.573 54.6344 109.024 55.0799C104.474 55.5254 100.103 57.0525 96.2847 59.5304C92.4667 62.0082 89.3164 65.3628 87.1056 69.3062C84.8947 73.2495 83.6896 77.6633 83.5944 82.1676C83.5014 86.5736 84.4731 90.9365 86.4273 94.8972L57.9033 136.891H56.3658ZM1.40918 28.1817C1.40918 13.4488 13.6557 1.37939 28.6375 1.37939H250.464C257.688 1.37939 264.614 4.20505 269.72 9.23233C274.825 14.2593 277.692 21.0758 277.692 28.1817V191.995C277.692 199.101 274.825 205.918 269.72 210.945C264.614 215.972 257.688 218.798 250.464 218.798H28.6375C21.4136 218.798 14.4871 215.972 9.38142 210.945C4.27596 205.918 1.40918 199.101 1.40918 191.995V28.1817Z" fill="#71bbff77" stroke="#000000"/>
</svg>
