<svg width="347" height="350" viewBox="0 0 347 350" fill="none" xmlns="http://www.w3.org/2000/svg">
<ellipse cx="173.5" cy="175" rx="173.5" ry="175" fill="#6E6E6E"/>
<ellipse cx="130" cy="133.06" rx="39" ry="36.9403" fill="#000000"/>
<path d="M126.74 68.5041C128.752 65.4645 133.236 65.5309 135.158 68.6287L161.725 111.457C161.991 111.886 162.191 112.353 162.317 112.842L165.891 126.675C166.708 129.84 164.319 132.925 161.05 132.925H99.0197C95.8535 132.925 93.5274 129.954 94.2872 126.881L97.6669 112.955C97.8036 112.392 98.037 111.857 98.3568 111.374L126.74 68.5041Z" fill="#000000"/>
<ellipse cx="174" cy="259.06" rx="39" ry="36.9403" fill="#000000"/>
<path d="M170.74 194.504C172.752 191.465 177.236 191.531 179.158 194.629L205.725 237.457C205.991 237.886 206.191 238.353 206.317 238.842L209.891 252.675C210.708 255.84 208.319 258.925 205.05 258.925H143.02C139.854 258.925 137.527 255.954 138.287 252.881L141.667 238.955C141.804 238.392 142.037 237.857 142.357 237.374L170.74 194.504Z" fill="#000000"/>
<ellipse cx="226" cy="159.269" rx="29" ry="28.7313" fill="#000000"/>
<path d="M222.414 110.894C224.411 107.739 229.035 107.806 230.939 111.018L249.512 142.335C249.762 142.756 249.948 143.212 250.066 143.687L252.358 152.965C253.136 156.117 250.751 159.164 247.504 159.164H203.164C200.698 159.164 198.877 156.863 199.444 154.463L201.919 143.797C202.046 143.25 202.264 142.728 202.565 142.253L222.414 110.894Z" fill="#000000"/>
</svg>
